<mxfile host="app.diagrams.net" modified="2024-02-04T04:32:13.444Z" agent="Mozilla/5.0 (Macintosh; Intel Mac OS X 10_15_7) AppleWebKit/605.1.15 (KHTML, like Gecko) Version/17.2 Safari/605.1.15" version="23.1.1" etag="Da-dKWJvhhq7-J37htFs" type="github">
  <diagram name="Page-1" id="_PY2UUXTU0mElecgxEdI">
    <mxGraphModel>
      <root>
        <mxCell id="0" />
        <mxCell id="1" parent="0" />
      </root>
    </mxGraphModel>
  </diagram>
</mxfile>
